<svg xmlns="http://www.w3.org/2000/svg" version="1.1" xmlns:xlink="http://www.w3.org/1999/xlink" width="512" height="512" x="0" y="0" viewBox="0 0 595.395 595.396" style="enable-background:new 0 0 512 512" xml:space="preserve" class="">
  <g>
    <path d="M530.87 146.094c0-15.416-5.972-29.94-16.816-40.898l-86.557-87.454a57.873 57.873 0 0 0-18.936-12.758A57.86 57.86 0 0 0 386.173.501H122.666c-32.058 0-58.14 26.082-58.14 58.14v478.116c0 32.059 26.082 58.14 58.14 58.14H472.73c32.059 0 58.14-26.081 58.14-58.14V146.094zm-51.32-14.86h-63.639a15.198 15.198 0 0 1-10.822-4.485 15.204 15.204 0 0 1-4.478-10.826l.046-64.399 78.893 79.71zm8.48 405.523c0 8.449-6.851 15.3-15.3 15.3H122.666c-8.45 0-15.3-6.851-15.3-15.3V58.64c0-8.45 6.85-15.3 15.3-15.3h235.158l-.052 72.553c-.012 15.538 6.031 30.147 17.014 41.138 10.983 10.99 25.589 17.043 41.126 17.043h72.118v362.683z" fill="#999999" opacity="1" data-original="#000000" class=""></path>
    <path d="M472.73 595.396H122.666c-32.334 0-58.64-26.306-58.64-58.64V58.64C64.026 26.306 90.332 0 122.666 0h263.508a58.355 58.355 0 0 1 22.58 4.521 58.382 58.382 0 0 1 19.099 12.868l86.557 87.454c10.938 11.052 16.961 25.701 16.961 41.25v390.662c-.001 32.335-26.307 58.641-58.641 58.641zM122.666 1c-31.783 0-57.64 25.857-57.64 57.64v478.116c0 31.782 25.857 57.64 57.64 57.64H472.73c31.782 0 57.64-25.857 57.64-57.64V146.094c0-15.284-5.921-29.684-16.672-40.547l-86.557-87.454a57.374 57.374 0 0 0-18.772-12.648A57.348 57.348 0 0 0 386.173 1H122.666zM472.73 552.557H122.666c-8.712 0-15.8-7.088-15.8-15.8V58.64c0-8.712 7.088-15.8 15.8-15.8h235.658v.5l-.052 72.553c-.012 15.403 5.979 29.887 16.867 40.784 10.89 10.896 25.369 16.897 40.772 16.897h72.618v363.183c.001 8.712-7.087 15.8-15.799 15.8zM122.666 43.84c-8.161 0-14.8 6.64-14.8 14.8v478.117c0 8.161 6.639 14.8 14.8 14.8H472.73c8.16 0 14.8-6.639 14.8-14.8V174.574h-71.618c-15.67 0-30.401-6.105-41.479-17.19-11.078-11.086-17.172-25.822-17.16-41.492l.052-72.052H122.666zm358.083 87.894h-64.837c-4.222 0-8.19-1.645-11.176-4.631a15.697 15.697 0 0 1-4.624-11.18l.047-65.614 80.59 81.425zM401.157 52.74l-.045 63.185a14.703 14.703 0 0 0 4.331 10.472 14.705 14.705 0 0 0 10.469 4.338h62.44L401.157 52.74z" fill="#000000" opacity="1" data-original="#000000" class=""></path>
  </g>
</svg>
